/* XPM */
static char *result[] = {
/* columns rows colors chars-per-pixel */
"64 64 98 2 ",
"   c #464D4F",
".  c #383F40",
"X  c #9F7315",
"o  c #855A00",
"O  c #141413",
"+  c #E000FF",
"@  c #110013",
"#  c #100012",
"$  c #744000",
"%  c #0F0011",
"&  c #2F1C17",
"*  c #382B2F",
"=  c #0E0010",
"-  c #0D000F",
";  c #0B000D",
":  c #0B000C",
">  c #536265",
",  c #28221F",
"<  c #1D131D",
"1  c #C1B339",
"2  c #09000A",
"3  c #1B131B",
"4  c #62797E",
"5  c #070008",
"6  c #050006",
"7  c #181418",
"8  c #171417",
"9  c #161416",
"0  c #4B3F38",
"q  c #161415",
"w  c #B08A2E",
"e  c #716033",
"r  c #151414",
"t  c #6C5256",
"y  c #DF00FE",
"u  c #DF00FD",
"i  c black",
"p  c #A900C0",
"a  c #D601F3",
"s  c #AB00C3",
"d  c #AD00C5",
"f  c #D601F4",
"g  c #B000C8",
"h  c #D701F5",
"j  c #B200CB",
"k  c #B400CD",
"l  c #D801F6",
"z  c #B700D0",
"x  c #D901F7",
"c  c #B800D2",
"v  c #BB00D5",
"b  c #DA01F8",
"n  c #C103DB",
"m  c #C203DD",
"M  c #DB01F9",
"N  c #C705E1",
"B  c #DB00F9",
"V  c #C603E1",
"C  c #DC01FB",
"Z  c #CB04E5",
"A  c #DC00FA",
"S  c #CA02E6",
"D  c #DD01FB",
"F  c #CF03EA",
"G  c #DE00FC",
"H  c #D103EC",
"J  c #D203EE",
"K  c #DE00FD",
"L  c #D402F1",
"P  c #D602F3",
"I  c #D801F5",
"U  c #DC01FA",
"Y  c #292220",
"T  c #D402F0",
"R  c #D002EC",
"E  c #CF03EB",
"W  c #CB02E7",
"Q  c #100311",
"!  c #25201D",
"~  c #241F1D",
"^  c #191716",
"/  c #AE00C6",
"(  c #B100C9",
")  c #0C000E",
"_  c #B300CC",
"`  c #B600CF",
"'  c #0A000B",
"]  c #BE03D8",
"[  c #BE00D8",
"{  c #C303DE",
"}  c #1A1319",
"|  c #C300DE",
" . c #C802E3",
".. c #CD02E9",
"X. c #CF02EB",
"o. c #D101ED",
"O. c #D301F0",
"+. c #D901F6",
/* pixels */
"                      .         . X o o o O + + + + + + + + + + + + @ X X X X                                                   ",
". . . . . . . . . . . . . . . . . o o o o O + + + + + + + + + + + + # X o o o . . . . . . . . . . . . . . . . . . . . . . . . . ",
". . . . . . . . . . . . . . . . . o o o $ O + + + + + + + + + + + + % X o o o . . . . . . . . . . . . . . . . . . . . . . . . . ",
"& & & & * & * * * * * * * . . . . o o o o O + + + + + + + + + + + + = X o o o . . . & & & & & & & & & & & & * & * * * * & & & * ",
". . . . . . . . . . . . . . . . . o o o $ O + + + + + + + + + + + + - X o o o . . & * . . . . . . . . . . . . . . . . . . . . . ",
". . . . . . . . . . . . . .   . . o o o $ O + + + + + + + + + + + + ; X o o o . . & . . . . . . . . . . . . . . . . . . . . . . ",
". . . . . . . . . . . . . .   . . o o o $ O + + + + + + + + + + + + : X o o o . . & . . . . . . . . . . . . . . . . . . . . . . ",
"                            >     X X X o , + + + + + + + + + + + + < 1 X X X     *                                             ",
". . . . . . . . . . . . . .   . . o o o $ O + + + + + + + + + + + + 2 X o o o . . & . . . . . . . . . . . . . . . . . . . . . . ",
"                            >     X X X o , + + + + + + + + + + + + 3 1 X X X     .                                             ",
"                            4     X X X o O + + + + + + + + + + + + 5 1 X X X     .                                             ",
"            .               >     X X X o O + + + + + + + + + + + + 6 1 X X X                                                   ",
"          . 4               4     X X X o , + + + + + + + + + + + + 7 1 X X X         > > > 4 > 4 4 4 4 >                       ",
"        * >                 4     X X X o , + + + + + + + + + + + + 8 1 X X X                             >                     ",
"      * >                   4     X X X o , + + + + + + + + + + + + 9 1 X X X                               >                   ",
"    * 0                     4     X X X o O + + + + + + + + + + + + q w X X X X X X X X X X X X X X X e       >                 ",
"    0 0                     4     X X X o , + + + + + + + + + + + + r 1 X X X X X X X X X X X X X X X X X       >               ",
"    0 0                   > 4     X X X X O + + + + + + + + + + + + O w X X X X X X X X X X X X X X X X X e       >             ",
"> > > t 4 > 4 > 4 4 4 4 4 4       X X X o , + + + + + + + + + + + y O w w w w w w w w X w X w X X X X X X X         > 4 4 4 4 4 ",
"    0                               w X X , + + + + + + + + + + + u , , , , , , , , , O , O O O i o X X X X                     ",
"    0 0                         . w X X X o , , , , , , , , O , O , O O O p + + + + + + + + + + a i   X   X                     ",
"* * & & * . * . . . . . .       > X X X X X X X X X X X X X X X       . O s + + + + + + + + + + a i     X X       * * * * . . . ",
"    0 0                     .     e X X X X X X X X X X X X X   X       O d + + + + + + + + + + f i       X     *               ",
"      0               .   .         X X X X X X X X X X X X X X   X   . O g + + + + + + + + + + h i >   X       *               ",
"    0               . > .   . >       e X X X X X X X X X X X X X       O j + + + + + + + + + + h i >     X     *               ",
"      0           . 4 .   . 4   >                               X X   . O k + + + + + + + + + + l i >   X       *               ",
"                . 4     . >       >                             X     . O z + + + + + + + + + + x i 4     X     *               ",
"      0         >     .             . * * * * * * . . .           X   . O c + + + + + + + + + + x i 4   X       * .             ",
"                                                                X     . O v + + + + + + + + + + b i 4           * >             ",
"                                                          >           . O n + + + + + + + + + + b O >         .                 ",
"                                                          >     X     . , m + + + + + + + + + + M O 4       . 4 *               ",
"                                                          >           . O N + + + + + + + + + + B , >       > .           . 4   ",
"                                                          >           . , V + + + + + + + + + + C O >       . 4 .       . >     ",
"                                                          4             O Z + + + + + + + + + + A , >       >   .     * >       ",
"                          . * * *                         4     X     . , S + + + + + + + + + + D O >     X     .   * 0         ",
"                        . * 0 0 . .                     > 4             O F + + + + + + + + + + G , >           .   0 0         ",
"                      . * 0 0     . > 4 4 4 4 4 4 4 4 4 4       X   X   , H + + + + + + + + + + G , >     X     .   0           ",
"                    4 * 0 0   0     >                             X     O J + + + + + + + + + + K , >           .     0         ",
"                  4   * . 0 0     4 >               w .         X   X   , L + + + + + + + + + + y ,       X     .   0           ",
"                4       e     e 1 w X X X X X X X w $ o X X X X   X     O P + + + + + + + + + + y ,     X       .               ",
"              4       X 1 1 1 w X X X X X X X w 1 i $ X X X X X X       , I + + + + + + + + + + + ,   X   X     .               ",
"            4       e X X X X X X X X X X w 1 i O O o X X X X X   X     O b + + + + + + + + + + + , w   X X                     ",
"> 4 4 4 4 4         X X X X X X X w w 1 1 i O , O , O o o X w X X     . , U + + + + + + + + + + + , w X X X         > > > 4 4 4 ",
"                    X X X X o O O , , O , , , O , O , i i i i i O O , , , G + + + + + + + + + + + Y X X X X                     ",
"                    X X X X O p K C b I P T R E W Z V Q O ! O ~ ~ , O , ^ , O O O O O O O , O , , o X X X X                     ",
"* * . . . .         X X X X O s + + + + + + + + + + + = X X X X X X X X X X X X X X X X X X X X X X X X X X         * * * . . . ",
"                    X X X o O / + + + + + + + + + + + - X X X X X X X X X X X X X X X X X X X X X X X X X e       *             ",
"              >     X X X X O ( + + + + + + + + + + + ) w X X X X X X X X X X X X X X X X X X X X X X X X       *               ",
"      * .     >     X X X o O _ + + + + + + + + + + + ; X X X X X X X X X X X X X X X X X X X X X X X e       *                 ",
"    * 0   >   >     X X X o O ` + + + + + + + + + + + ' w X X X                                             *                   ",
"    .   4 >   4     X X X o O c + + + + + + + + + + + 2 1 X X X                                           .                     ",
"      >       4     X X X o , ] + + + + + + + + + + + 3 1 X X X       * * * * * * * * * * . * . . . . . .                       ",
"              4     X X X o O [ + + + + + + + + + + + 5 1 X X X     * .                                                         ",
"              4     X X X o , { + + + + + + + + + + + } w X X X     *                                                           ",
"              4     X X X o O | + + + + + + + + + + + 6 1 X X X     *                                                           ",
"              >     X X X $ ,  .+ + + + + + + + + + + 7 X X X X     *                                                           ",
"              4     X X X o , S + + + + + + + + + + + 8 w X X X     .                                                           ",
"              4     X X X $ , ..+ + + + + + + + + + + 9 X X X X     .                                                           ",
"              4     X X X $ O X.+ + + + + + + + + + + q X X X X     .                                                           ",
"            > 4     X X X $ , o.+ + + + + + + + + + + O X X X X                                                                 ",
"> > > 4 4 4 4       X X X $ O O.+ + + + + + + + + + + O X X X X         > > > > > > 4 4 4 4 4 > 4 > 4 4 4 4 4 4 4 4 4 4 4 4 4 4 ",
"                    X X X $ , a + + + + + + + + + + y O X X X X                                                                 ",
"                    X X X $ , +.+ + + + + + + + + + u , X X X X                                                                 ",
"& * & * & * * * * * & & & O O b + + + + + + + + + + G O O & O O O O * O * * * * * * * * * * & * & * * & * & * & & & & & & * & * "
};
