/* XPM */
static char *result[] = {
/* columns rows colors chars-per-pixel */
"64 64 43 1 ",
"  c #464D4F",
". c #383F40",
"X c #9F7315",
"o c #855A00",
"O c #141413",
"+ c magenta",
"@ c #130013",
"# c #120012",
"$ c #744000",
"% c #2F1C17",
"& c #382B2F",
"* c #110011",
"= c #100010",
"- c #0F000F",
"; c #536265",
": c #28221F",
"> c #221321",
", c #C1B339",
"< c #0E000E",
"1 c #20131F",
"2 c #62797E",
"3 c #0D000D",
"4 c #0C000C",
"5 c #1F131E",
"6 c #1E131D",
"7 c #1D131C",
"8 c #B08A2E",
"9 c #716033",
"0 c #1C131B",
"q c #1B131A",
"w c black",
"e c #060006",
"r c #050005",
"t c #040004",
"y c #030003",
"u c #020002",
"i c #151414",
"p c #292220",
"a c #0A000A",
"s c #090009",
"d c #2F2126",
"f c #1A1319",
"g c #2E2125",
/* pixels */
"           .    .XoooO++++++++++++@XXXX                         ",
".................ooooO++++++++++++#Xooo.........................",
".................ooo$O++++++++++++#Xooo.........................",
"%%%%&%&&&&&&&....ooooO++++++++++++*Xooo...%%%%%%%%%%%%&%&&&&%%%&",
".................ooo$O++++++++++++=Xooo..%&.....................",
".............. ..ooo$O++++++++++++=Xooo..%......................",
".............. ..ooo$O++++++++++++-Xooo..%......................",
"              ;  XXXo:++++++++++++>,XXX  &                      ",
".............. ..ooo$O++++++++++++<Xooo..%......................",
"              ;  XXXo:++++++++++++1,XXX  .                      ",
"              2  XXXoO++++++++++++3,XXX  .                      ",
"              ;  XXXoO++++++++++++4,XXX                         ",
"              2  XXXo:++++++++++++5,XXX    ;;;2;2222;           ",
"              2  XXXo:++++++++++++6,XXX              ;          ",
"              2  XXXo:++++++++++++7,XXX               ;         ",
"              2  XXXoO++++++++++++78XXXXXXXXXXXXXXX9   ;        ",
"              2  XXXo:++++++++++++0,XXXXXXXXXXXXXXXXX   ;       ",
"             ;2  XXXXO++++++++++++08XXXXXXXXXXXXXXXXX9   ;      ",
";;;;2;2;222222   XXXo:++++++++++++q88888888X8X8XXXXXXX    ;22222",
"                 XXXX:++++++++++++wwww:::::O:OOOwoXXXX          ",
"                 XXXXo::::::::O:O:OOO++++++++++++eXXXX          ",
"&&&&.&.......    XXXXXXXXXXXXXXXXXX$O++++++++++++e8XXX   &&&&...",
"                 9XXXXXXXXXXXXXXXXXXO++++++++++++r,XXX  &       ",
"              ;   XXXXXXXXXXXXXXXXXoO++++++++++++r,XXX  &       ",
"               2   9XXXXXXXXXXXXXXXXO++++++++++++t,XXX  &       ",
"                ;               XXXoO++++++++++++t,XXX  &       ",
"                 ;              XXXoO++++++++++++y,XXX  &       ",
"                  .&&&&&&...    XXXoO++++++++++++y,XXX  &       ",
"                                XXXoO++++++++++++u,XXX  &       ",
"                             ;  XXXoO++++++++++++u8XXX  &       ",
"                             ;  XXXoO++++++++++++i,XXX  .       ",
"                             ;  XXXoO++++++++++++p8XXX  &       ",
"                             ;  XXXo:++++++++++++i8XXX  .       ",
"                             2  XXXoO++++++++++++p8XXX  &       ",
"                             2  XXXo:++++++++++++i8XXX  .       ",
"                            ;2  XXXoO++++++++++++p8XXX  .       ",
"           222222222222222222   XXXX:++++++++++++p8XXX  .       ",
"          2                     XXXoO++++++++++++p8XXX  .       ",
"         2                      XXXX:++++++++++++p8XXX  .       ",
"        2   9XXXXXXXXXXXXXXXXXXXXXXoO++++++++++++pXXXX  .       ",
"       2   XXXXXXXXXXXXXXXXXXXXXXXXX:++++++++++++p8XXX  .       ",
"      2   9XXXXXXXXXXXXXXXXXXXXXXXXXO++++++++++++pXXXX          ",
";22222    XXXXXXX888888888888X8X8XX$:++++++++++++p8XXX    ;;;222",
"          XXXXoOO::::::O:O:O:O:O:O:::++++++++++++pXXXX          ",
"          XXXXq++++++++++++wwwwwwwwwwwO:O:O:O::::oXXXX          ",
"&&....    XXXXq++++++++++++aXXXXXXXXXXXXXXXXXXXXXXXXXX    &&&...",
"          XXXoq++++++++++++aXXXXXXXXXXXXXXXXXXXXXXXXX9   &      ",
"       ;  XXXXq++++++++++++a8XXXXXXXXXXXXXXXXXXXXXXXX   &       ",
"       ;  XXXoq++++++++++++aXXXXXXXXXXXXXXXXXXXXXXX9   &        ",
"       ;  XXXoq++++++++++++s8XXX                      &         ",
"       2  XXXoq++++++++++++s,XXX                     .          ",
"       2  XXXod++++++++++++0,XXX   &&&&&&&&&&.&......           ",
"       2  XXXoq++++++++++++s,XXX  &.                            ",
"       2  XXXod++++++++++++08XXX  &                             ",
"       2  XXXoq++++++++++++s,XXX  &                             ",
"       ;  XXX$d++++++++++++qXXXX  &                             ",
"       2  XXXod++++++++++++q8XXX  .                             ",
"       2  XXX$d++++++++++++qXXXX  .                             ",
"       2  XXX$q++++++++++++qXXXX  .                             ",
"      ;2  XXX$d++++++++++++qXXXX                                ",
";;;2222   XXX$q++++++++++++fXXXX    ;;;;;;22222;2;22222222222222",
"          XXX$d++++++++++++fXXXX                                ",
"          XXX$d++++++++++++gXXXX                                ",
"%&%&%&&&&&%%%Oq++++++++++++fO%OOOO&O&&&&&&&&&&%&%&&%&%&%%%%%%&%&"
};
