/* XPM */
static char *result[] = {
/* columns rows colors chars-per-pixel */
"64 64 43 1 ",
"  c #464D4F",
". c #383F40",
"X c #9F7315",
"o c #855A00",
"O c #141413",
"+ c magenta",
"@ c #130013",
"# c #120012",
"$ c #744000",
"% c #382B2F",
"& c #110011",
"* c #2F1C17",
"= c #100010",
"- c #0F000F",
"; c #536265",
": c #28221F",
"> c #221321",
", c #C1B339",
"< c #0E000E",
"1 c #20131F",
"2 c #62797E",
"3 c #0D000D",
"4 c #0C000C",
"5 c #1F131E",
"6 c #1E131D",
"7 c #1D131C",
"8 c #B08A2E",
"9 c #716033",
"0 c #1C131B",
"q c #1B131A",
"w c #2E2125",
"e c black",
"r c #060006",
"t c #050005",
"y c #040004",
"u c #030003",
"i c #020002",
"p c #151414",
"a c #292220",
"s c #0A000A",
"d c #090009",
"f c #2F2126",
"g c #1A1319",
/* pixels */
"     .    .XoooO++++++++++++++++++++++++@XXXX                   ",
"...........ooooO++++++++++++++++++++++++#Xooo...................",
"...........ooo$O++++++++++++++++++++++++#Xooo...................",
"%%%%%%%....ooooO++++++++++++++++++++++++&Xooo...************%*%%",
"...........ooo$O++++++++++++++++++++++++=Xooo..*%...............",
"........ ..ooo$O++++++++++++++++++++++++=Xooo..*................",
"........ ..ooo$O++++++++++++++++++++++++-Xooo..*................",
"        ;  XXXo:++++++++++++++++++++++++>,XXX  %                ",
"........ ..ooo$O++++++++++++++++++++++++<Xooo..*................",
"        ;  XXXo:++++++++++++++++++++++++1,XXX  .                ",
"        2  XXXoO++++++++++++++++++++++++3,XXX  .                ",
"        ;  XXXoO++++++++++++++++++++++++4,XXX                   ",
"        2  XXXo:++++++++++++++++++++++++5,XXX    ;;;2;2222;     ",
"        2  XXXo:++++++++++++++++++++++++6,XXX              ;    ",
"        2  XXXo:++++++++++++++++++++++++7,XXX               ;   ",
"        2  XXXoO++++++++++++++++++++++++78XXXXXXXXXXXXXXX9   ;  ",
"        2  XXXo:++++++++++++++++++++++++0,XXXXXXXXXXXXXXXXX   ; ",
"       ;2  XXXXO++++++++++++++++++++++++08XXXXXXXXXXXXXXXXX9   ;",
"2;222222   XXXo:++++++++++++++++++++++++q88888888X8X8XXXXXXX    ",
"           XXXX:++++++++++++++++++++++++w::::::::O:OOOeoXXXX    ",
"           XXXXo::::::::O:O:OOO++++++++++++++++++++++++rXXXX    ",
".......    XXXXXXXXXXXXXXXXXX$O++++++++++++++++++++++++r8XXX   %",
"           9XXXXXXXXXXXXXXXXXXO++++++++++++++++++++++++t,XXX  % ",
"        ;   XXXXXXXXXXXXXXXXXoO++++++++++++++++++++++++t,XXX  % ",
"         2   9XXXXXXXXXXXXXXXXO++++++++++++++++++++++++y,XXX  % ",
"          ;               XXXoO++++++++++++++++++++++++y,XXX  % ",
"           ;              XXXoO++++++++++++++++++++++++u,XXX  % ",
"            .%%%%%%...    XXXoO++++++++++++++++++++++++u,XXX  % ",
"                          XXXoO++++++++++++++++++++++++i,XXX  % ",
"                       ;  XXXoO++++++++++++++++++++++++i8XXX  % ",
"                       ;  XXXoO++++++++++++++++++++++++p,XXX  . ",
"                       ;  XXXoO++++++++++++++++++++++++a8XXX  % ",
"                       ;  XXXo:++++++++++++++++++++++++p8XXX  . ",
"                       2  XXXoO++++++++++++++++++++++++a8XXX  % ",
"                       2  XXXo:++++++++++++++++++++++++p8XXX  . ",
"                      ;2  XXXoO++++++++++++++++++++++++a8XXX  . ",
"     222222222222222222   XXXX:++++++++++++++++++++++++a8XXX  . ",
"    2                     XXXoO++++++++++++++++++++++++a8XXX  . ",
"   2                      XXXX:++++++++++++++++++++++++a8XXX  . ",
"  2   9XXXXXXXXXXXXXXXXXXXXXXoO++++++++++++++++++++++++aXXXX  . ",
" 2   XXXXXXXXXXXXXXXXXXXXXXXXX:++++++++++++++++++++++++a8XXX  . ",
"2   9XXXXXXXXXXXXXXXXXXXXXXXXXO++++++++++++++++++++++++aXXXX    ",
"    XXXXXXX888888888888X8X8XX$:++++++++++++++++++++++++a8XXX    ",
"    XXXXoOO::::::O:O:O:O:O:O:::++++++++++++++++++++++++aXXXX    ",
"    XXXXq++++++++++++++++++++++++sO:::::O:O:O:O:O:O::::oXXXX    ",
"    XXXXq++++++++++++++++++++++++sXXXXXXXXXXXXXXXXXXXXXXXXXX    ",
"    XXXoq++++++++++++++++++++++++sXXXXXXXXXXXXXXXXXXXXXXXXX9   %",
" ;  XXXXq++++++++++++++++++++++++s8XXXXXXXXXXXXXXXXXXXXXXXX   % ",
" ;  XXXoq++++++++++++++++++++++++sXXXXXXXXXXXXXXXXXXXXXXX9   %  ",
" ;  XXXoq++++++++++++++++++++++++d8XXX                      %   ",
" 2  XXXoq++++++++++++++++++++++++d,XXX                     .    ",
" 2  XXXof++++++++++++++++++++++++0,XXX   %%%%%%%%%%.%......     ",
" 2  XXXoq++++++++++++++++++++++++d,XXX  %.                      ",
" 2  XXXof++++++++++++++++++++++++08XXX  %                       ",
" 2  XXXoq++++++++++++++++++++++++d,XXX  %                       ",
" ;  XXX$f++++++++++++++++++++++++qXXXX  %                       ",
" 2  XXXof++++++++++++++++++++++++q8XXX  .                       ",
" 2  XXX$f++++++++++++++++++++++++qXXXX  .                       ",
" 2  XXX$q++++++++++++++++++++++++qXXXX  .                       ",
";2  XXX$f++++++++++++++++++++++++qXXXX                          ",
"2   XXX$q++++++++++++++++++++++++gXXXX    ;;;;;;22222;2;22222222",
"    XXX$f++++++++++++++++++++++++gXXXX                          ",
"    XXX$f++++++++++++++++++++++++wXXXX                          ",
"%%%%***Oq++++++++++++++++++++++++gO*OOOO%O%%%%%%%%%%*%*%%*%*%***"
};
