/* XPM */
static char *result[] = {
/* columns rows colors chars-per-pixel */
"64 64 104 2 ",
"   c #464D4F",
".  c #383F40",
"X  c #9F7315",
"o  c #855A00",
"O  c #141413",
"+  c #E000FF",
"@  c #110013",
"#  c #100012",
"$  c #744000",
"%  c #0F0011",
"&  c #382B2F",
"*  c #0E0010",
"=  c #2F1C17",
"-  c #0D000F",
";  c #0B000D",
":  c #0B000C",
">  c #536265",
",  c #28221F",
"<  c #1D131D",
"1  c #C1B339",
"2  c #09000A",
"3  c #1B131B",
"4  c #62797E",
"5  c #070008",
"6  c #050006",
"7  c #181418",
"8  c #171417",
"9  c #161416",
"0  c #161415",
"q  c #B08A2E",
"w  c #716033",
"e  c #151414",
"r  c #DF00FE",
"t  c #DF00FD",
"y  c black",
"u  c #A900C0",
"i  c #D601F3",
"p  c #AB00C3",
"a  c #AD00C5",
"s  c #D601F4",
"d  c #B000C8",
"f  c #D701F5",
"g  c #B200CB",
"h  c #B400CD",
"j  c #D801F6",
"k  c #B700D0",
"l  c #D901F7",
"z  c #B800D2",
"x  c #BB00D5",
"c  c #DA01F8",
"v  c #C103DB",
"b  c #C203DD",
"n  c #DB01F9",
"m  c #C705E1",
"M  c #DB00F9",
"N  c #C603E1",
"B  c #DC01FB",
"V  c #CB04E5",
"C  c #DC00FA",
"Z  c #CA02E6",
"A  c #DD01FB",
"S  c #4B3F38",
"D  c #CF03EA",
"F  c #DE00FC",
"G  c #D103EC",
"H  c #D203EE",
"J  c #DE00FD",
"K  c #D402F1",
"L  c #D602F3",
"P  c #D801F5",
"I  c #DC01FA",
"U  c #292220",
"Y  c #D402F0",
"T  c #D002EC",
"R  c #CF03EB",
"E  c #CB02E7",
"W  c #C403DF",
"Q  c #C103DC",
"!  c #BF03D9",
"~  c #BD03D6",
"^  c #BA04D3",
"/  c #B804D1",
"(  c #BA07D0",
")  c #B304CB",
"_  c #B508CB",
"`  c #B308C8",
"'  c #E000FE",
"]  c #AE00C6",
"[  c #B100C9",
"{  c #0C000E",
"}  c #B300CC",
"|  c #B600CF",
" . c #0A000B",
".. c #BE03D8",
"X. c #BE00D8",
"o. c #C303DE",
"O. c #1A1319",
"+. c #C300DE",
"@. c #C802E3",
"#. c #CD02E9",
"$. c #CF02EB",
"%. c #D101ED",
"&. c #D301F0",
"*. c #D901F6",
/* pixels */
"        . X o o o O + + + + + + + + + + + + + + + + + + + + + + + + + + + + + + + + + + + + @ X X X X                           ",
". . . . . o o o o O + + + + + + + + + + + + + + + + + + + + + + + + + + + + + + + + + + + + # X o o o . . . . . . . . . . . . . ",
". . . . . o o o $ O + + + + + + + + + + + + + + + + + + + + + + + + + + + + + + + + + + + + % X o o o . . . . . . . . . . . . . ",
"& . . . . o o o o O + + + + + + + + + + + + + + + + + + + + + + + + + + + + + + + + + + + + * X o o o . . . = = = = = = = = = = ",
". . . . . o o o $ O + + + + + + + + + + + + + + + + + + + + + + + + + + + + + + + + + + + + - X o o o . . = & . . . . . . . . . ",
". .   . . o o o $ O + + + + + + + + + + + + + + + + + + + + + + + + + + + + + + + + + + + + ; X o o o . . = . . . . . . . . . . ",
". .   . . o o o $ O + + + + + + + + + + + + + + + + + + + + + + + + + + + + + + + + + + + + : X o o o . . = . . . . . . . . . . ",
"    >     X X X o , + + + + + + + + + + + + + + + + + + + + + + + + + + + + + + + + + + + + < 1 X X X     &                     ",
". .   . . o o o $ O + + + + + + + + + + + + + + + + + + + + + + + + + + + + + + + + + + + + 2 X o o o . . = . . . . . . . . . . ",
"    >     X X X o , + + + + + + + + + + + + + + + + + + + + + + + + + + + + + + + + + + + + 3 1 X X X     .                     ",
"    4     X X X o O + + + + + + + + + + + + + + + + + + + + + + + + + + + + + + + + + + + + 5 1 X X X     .                     ",
"    >     X X X o O + + + + + + + + + + + + + + + + + + + + + + + + + + + + + + + + + + + + 6 1 X X X                           ",
"    4     X X X o , + + + + + + + + + + + + + + + + + + + + + + + + + + + + + + + + + + + + 7 1 X X X         > > > 4 > 4 4 4 4 ",
"    4     X X X o , + + + + + + + + + + + + + + + + + + + + + + + + + + + + + + + + + + + + 8 1 X X X                           ",
"    4     X X X o , + + + + + + + + + + + + + + + + + + + + + + + + + + + + + + + + + + + + 9 1 X X X                           ",
"    4     X X X o O + + + + + + + + + + + + + + + + + + + + + + + + + + + + + + + + + + + + 0 q X X X X X X X X X X X X X X X w ",
"    4     X X X o , + + + + + + + + + + + + + + + + + + + + + + + + + + + + + + + + + + + + e 1 X X X X X X X X X X X X X X X X ",
"  > 4     X X X X O + + + + + + + + + + + + + + + + + + + + + + + + + + + + + + + + + + + + O q X X X X X X X X X X X X X X X X ",
"4 4       X X X o , + + + + + + + + + + + + + + + + + + + + + + + + + + + + + + + + + + + r O q q q q q q q q X q X q X X X X X ",
"            q X X , + + + + + + + + + + + + + + + + + + + + + + + + + + + + + + + + + + + t , , , , , , , , , O , O O O y o X X ",
"        . q X X X o , , , , , , , , O , O , O O O u + + + + + + + + + + + + + + + + + + + + + + + + + + + + + + + + + + i y   X ",
".       > X X X X X X X X X X X X X X X       . O p + + + + + + + + + + + + + + + + + + + + + + + + + + + + + + + + + + i y     ",
"    .     w X X X X X X X X X X X X X   X       O a + + + + + + + + + + + + + + + + + + + + + + + + + + + + + + + + + + s y     ",
"  .         X X X X X X X X X X X X X X   X   . O d + + + + + + + + + + + + + + + + + + + + + + + + + + + + + + + + + + f y >   ",
".   . >       w X X X X X X X X X X X X X       O g + + + + + + + + + + + + + + + + + + + + + + + + + + + + + + + + + + f y >   ",
"  . 4   >                               X X   . O h + + + + + + + + + + + + + + + + + + + + + + + + + + + + + + + + + + j y >   ",
". >       >                             X     . O k + + + + + + + + + + + + + + + + + + + + + + + + + + + + + + + + + + l y 4   ",
"            . & & & & & & . . .           X   . O z + + + + + + + + + + + + + + + + + + + + + + + + + + + + + + + + + + l y 4   ",
"                                        X     . O x + + + + + + + + + + + + + + + + + + + + + + + + + + + + + + + + + + c y 4   ",
"                                  >           . O v + + + + + + + + + + + + + + + + + + + + + + + + + + + + + + + + + + c O >   ",
"                                  >     X     . , b + + + + + + + + + + + + + + + + + + + + + + + + + + + + + + + + + + n O 4   ",
"                                  >           . O m + + + + + + + + + + + + + + + + + + + + + + + + + + + + + + + + + + M , >   ",
"                                  >           . , N + + + + + + + + + + + + + + + + + + + + + + + + + + + + + + + + + + B O >   ",
"                                  4             O V + + + + + + + + + + + + + + + + + + + + + + + + + + + + + + + + + + C , >   ",
"  . & & &                         4     X     . , Z + + + + + + + + + + + + + + + + + + + + + + + + + + + + + + + + + + A O >   ",
". & S S . .                     > 4             O D + + + + + + + + + + + + + + + + + + + + + + + + + + + + + + + + + + F , >   ",
"& S S     . > 4 4 4 4 4 4 4 4 4 4       X   X   , G + + + + + + + + + + + + + + + + + + + + + + + + + + + + + + + + + + F , >   ",
"S S   S     >                             X     O H + + + + + + + + + + + + + + + + + + + + + + + + + + + + + + + + + + J , >   ",
". S S     4 >               q .         X   X   , K + + + + + + + + + + + + + + + + + + + + + + + + + + + + + + + + + + r ,     ",
"w     w 1 q X X X X X X X q $ o X X X X   X     O L + + + + + + + + + + + + + + + + + + + + + + + + + + + + + + + + + + r ,     ",
"1 1 1 q X X X X X X X q 1 y $ X X X X X X       , P + + + + + + + + + + + + + + + + + + + + + + + + + + + + + + + + + + + ,   X ",
"X X X X X X X X X q 1 y O O o X X X X X   X     O c + + + + + + + + + + + + + + + + + + + + + + + + + + + + + + + + + + + , q   ",
"X X X X X q q 1 1 y O , O , O o o X q X X     . , I + + + + + + + + + + + + + + + + + + + + + + + + + + + + + + + + + + + , q X ",
"X X o O O , , O , , , O , O , y y y y y O O , , , F + + + + + + + + + + + + + + + + + + + + + + + + + + + + + + + + + + + U X X ",
"X X O u J B c P L Y T R E V N W Q ! ~ ^ / ( ) _ ` ' + + + + + + + + + + + + + % O , O , , , O , O , O O O O O O O , O , , o X X ",
"X X O p + + + + + + + + + + + + + + + + + + + + + + + + + + + + + + + + + + + * X X X X X X X X X X X X X X X X X X X X X X X X ",
"X o O ] + + + + + + + + + + + + + + + + + + + + + + + + + + + + + + + + + + + - X X X X X X X X X X X X X X X X X X X X X X X X ",
"X X O [ + + + + + + + + + + + + + + + + + + + + + + + + + + + + + + + + + + + { q X X X X X X X X X X X X X X X X X X X X X X X ",
"X o O } + + + + + + + + + + + + + + + + + + + + + + + + + + + + + + + + + + + ; X X X X X X X X X X X X X X X X X X X X X X X w ",
"X o O | + + + + + + + + + + + + + + + + + + + + + + + + + + + + + + + + + + +  .q X X X                                         ",
"X o O z + + + + + + + + + + + + + + + + + + + + + + + + + + + + + + + + + + + 2 1 X X X                                         ",
"X o , ..+ + + + + + + + + + + + + + + + + + + + + + + + + + + + + + + + + + + 3 1 X X X       & & & & & & & & & & . & . . . . . ",
"X o O X.+ + + + + + + + + + + + + + + + + + + + + + + + + + + + + + + + + + + 5 1 X X X     & .                                 ",
"X o , o.+ + + + + + + + + + + + + + + + + + + + + + + + + + + + + + + + + + + O.q X X X     &                                   ",
"X o O +.+ + + + + + + + + + + + + + + + + + + + + + + + + + + + + + + + + + + 6 1 X X X     &                                   ",
"X $ , @.+ + + + + + + + + + + + + + + + + + + + + + + + + + + + + + + + + + + 7 X X X X     &                                   ",
"X o , Z + + + + + + + + + + + + + + + + + + + + + + + + + + + + + + + + + + + 8 q X X X     .                                   ",
"X $ , #.+ + + + + + + + + + + + + + + + + + + + + + + + + + + + + + + + + + + 9 X X X X     .                                   ",
"X $ O $.+ + + + + + + + + + + + + + + + + + + + + + + + + + + + + + + + + + + 0 X X X X     .                                   ",
"X $ , %.+ + + + + + + + + + + + + + + + + + + + + + + + + + + + + + + + + + + O X X X X                                         ",
"X $ O &.+ + + + + + + + + + + + + + + + + + + + + + + + + + + + + + + + + + + O X X X X         > > > > > > 4 4 4 4 4 > 4 > 4 4 ",
"X $ , i + + + + + + + + + + + + + + + + + + + + + + + + + + + + + + + + + + r O X X X X                                         ",
"X $ , *.+ + + + + + + + + + + + + + + + + + + + + + + + + + + + + + + + + + t , X X X X                                         ",
"= O O c + + + + + + + + + + + + + + + + + + + + + + + + + + + + + + + + + + F O O = O O O O & O & & & & & & & & & & = & = & & = "
};
