/* XPM */
static char *result[] = {
/* columns rows colors chars-per-pixel */
"64 64 73 1 ",
"  c #E000FF",
". c #110013",
"X c #9F7315",
"o c #464D4F",
"O c #100012",
"+ c #855A00",
"@ c #383F40",
"# c #0F0011",
"$ c #0E0010",
"% c #0D000F",
"& c #0B000D",
"* c #0B000C",
"= c #1D131D",
"- c #C1B339",
"; c #09000A",
": c #1B131B",
"> c #070008",
", c #050006",
"< c #181418",
"1 c #171417",
"2 c #161416",
"3 c #161415",
"4 c #B08A2E",
"5 c #151414",
"6 c #141413",
"7 c #DF00FE",
"8 c #DF00FD",
"9 c #28221F",
"0 c #A900C0",
"q c #AB00C3",
"w c #AD00C5",
"e c #B000C8",
"r c #B200CB",
"t c #B400CD",
"y c #B700D0",
"u c #382B2F",
"i c #B800D2",
"p c #BB00D5",
"a c #536265",
"s c #C103DB",
"d c #C203DD",
"f c #C705E1",
"g c #C603E1",
"h c #62797E",
"j c #CB04E5",
"k c #CA02E6",
"l c #CF03EA",
"z c #D103EC",
"x c #D203EE",
"c c #D402F1",
"v c #744000",
"b c #D602F3",
"n c black",
"m c #D801F5",
"M c #DA01F8",
"N c #DC01FA",
"B c #DE00FC",
"V c #CB02E7",
"C c #C403DF",
"Z c #C103DC",
"A c #BF03D9",
"S c #BD03D6",
"D c #BA04D3",
"F c #B804D1",
"G c #BA07D0",
"H c #B304CB",
"J c #B508CB",
"K c #B308C8",
"L c #E000FE",
"P c #0C000E",
"I c #0A000B",
"U c #1A1319",
"Y c #2F1C17",
/* pixels */
"                                                          .XXXXo",
"                                                          OX+++@",
"                                                          #X+++@",
"                                                          $X+++@",
"                                                          %X+++@",
"                                                          &X+++@",
"                                                          *X+++@",
"                                                          =-XXXo",
"                                                          ;X+++@",
"                                                          :-XXXo",
"                                                          >-XXXo",
"                                                          ,-XXXo",
"                                                          <-XXXo",
"                                                          1-XXXo",
"                                                          2-XXXo",
"                                                          34XXXX",
"                                                          5-XXXX",
"                                                          64XXXX",
"                                                         7644444",
"                                                         8999999",
"99999969696660                                                  ",
"XXXXXXXXooo@6q                                                  ",
"XXXXXXXoXooo6w                                                  ",
"XXXXXXXXoXo@6e                                                  ",
"XXXXXXXXXooo6r                                                  ",
"ooooooooXXo@6t                                                  ",
"ooooooooXoo@6y                                                  ",
"u@@@oooooXo@6i                                                  ",
"ooooooooXoo@6p                                                  ",
"oooooaooooo@6s                                                  ",
"oooooaooXoo@9d                                                  ",
"oooooaooooo@6f                                                  ",
"oooooaooooo@9g                                                  ",
"ooooohoooooo6j                                                  ",
"ooooohooXoo@9k                                                  ",
"ooooahoooooo6l                                                  ",
"hhhhhoooXoXo9z                                                  ",
"oooooooooXoo6x                                                  ",
"oo4@ooooXoXo9c                                                  ",
"X4v+XXXXoXoo6b                                                  ",
"-nvXXXXXXooo9m                                                  ",
"66+XXXXXoXoo6M                                                  ",
"696++X4XXoo@9N                                                  ",
"969nnnnn66999B                                                  ",
"VjgCZASDFGHJKL                                     #696999696966",
"                                                   $XXXXXXXXXXXX",
"                                                   %XXXXXXXXXXXX",
"                                                   P4XXXXXXXXXXX",
"                                                   &XXXXXXXXXXXX",
"                                                   I4XXXoooooooo",
"                                                   ;-XXXoooooooo",
"                                                   :-XXXooouuuuu",
"                                                   >-XXXoou@oooo",
"                                                   U4XXXoouooooo",
"                                                   ,-XXXoouooooo",
"                                                   <XXXXoouooooo",
"                                                   14XXXoo@ooooo",
"                                                   2XXXXoo@ooooo",
"                                                   3XXXXoo@ooooo",
"                                                   6XXXXoooooooo",
"                                                   6XXXXooooaaaa",
"                                                  76XXXXoooooooo",
"                                                  89XXXXoooooooo",
"                                                  B66Y6666u6uuuu"
};
