/* XPM */
static char *result[] = {
/* columns rows colors chars-per-pixel */
"64 64 59 1 ",
"  c #E000FF",
". c #DF00FE",
"X c #DF00FD",
"o c #141413",
"O c #28221F",
"+ c #A900C0",
"@ c #9F7315",
"# c #464D4F",
"$ c #383F40",
"% c #AB00C3",
"& c #AD00C5",
"* c #B000C8",
"= c #B200CB",
"- c #B400CD",
"; c #B700D0",
": c #B800D2",
"> c #BB00D5",
", c #C103DB",
"< c #C203DD",
"1 c #C705E1",
"2 c #C603E1",
"3 c #CB04E5",
"4 c #CA02E6",
"5 c #CF03EA",
"6 c #D103EC",
"7 c #D203EE",
"8 c #D402F1",
"9 c #D602F3",
"0 c #D801F5",
"q c #DA01F8",
"w c #B08A2E",
"e c #DC01FA",
"r c black",
"t c #DE00FC",
"y c #BD03D6",
"u c #BA04D3",
"i c #B804D1",
"p c #BA07D0",
"a c #B304CB",
"s c #B508CB",
"d c #B308C8",
"f c #E000FE",
"g c #0F0011",
"h c #0E0010",
"j c #0D000F",
"k c #0C000E",
"l c #0B000D",
"z c #0A000B",
"x c #09000A",
"c c #C1B339",
"v c #1B131B",
"b c #070008",
"n c #1A1319",
"m c #050006",
"M c #181418",
"N c #171417",
"B c #161416",
"V c #161415",
"C c #2F1C17",
/* pixels */
"                                                                ",
"                                                                ",
"                                                                ",
"                                                                ",
"                                                                ",
"                                                                ",
"                                                                ",
"                                                                ",
"                                                                ",
"                                                                ",
"                                                                ",
"                                                                ",
"                                                                ",
"                                                                ",
"                                                                ",
"                                                                ",
"                                                                ",
"                                                                ",
"                                                               .",
"                                                               X",
"oOoOooo+                                                        ",
"@@###$o%                                                        ",
"@#@###o&                                                        ",
"@@#@#$o*                                                        ",
"@@@###o=                                                        ",
"##@@#$o-                                                        ",
"##@##$o;                                                        ",
"###@#$o:                                                        ",
"##@##$o>                                                        ",
"#####$o,                                                        ",
"##@##$O<                                                        ",
"#####$o1                                                        ",
"#####$O2                                                        ",
"######o3                                                        ",
"##@##$O4                                                        ",
"######o5                                                        ",
"##@#@#O6                                                        ",
"###@##o7                                                        ",
"##@#@#O8                                                        ",
"@@#@##o9                                                        ",
"@@@###O0                                                        ",
"@@#@##oq                                                        ",
"w@@##$Oe                                                        ",
"rrooOOOt                                                        ",
"yuipasdf                                                 goOoOOO",
"                                                         h@@@@@@",
"                                                         j@@@@@@",
"                                                         kw@@@@@",
"                                                         l@@@@@@",
"                                                         zw@@@##",
"                                                         xc@@@##",
"                                                         vc@@@##",
"                                                         bc@@@##",
"                                                         nw@@@##",
"                                                         mc@@@##",
"                                                         M@@@@##",
"                                                         Nw@@@##",
"                                                         B@@@@##",
"                                                         V@@@@##",
"                                                         o@@@@##",
"                                                         o@@@@##",
"                                                        .o@@@@##",
"                                                        XO@@@@##",
"                                                        tooCoooo"
};
