/* XPM */
static char *_9f9aa011d9d4d8cdacf1f5492d98295VKulzBwUltZ24u7P[] = {
/* columns rows colors chars-per-pixel */
"16 16 127 2 ",
"   c None",
".  c #1B1610",
"X  c #262118",
"o  c #531010",
"O  c #4F3F2D",
"+  c #50402D",
"@  c #5F4F39",
"#  c #7C442D",
"$  c #7A4636",
"%  c #703E79",
"&  c #724846",
"*  c #6E5940",
"=  c #755E44",
"-  c #6B4A54",
";  c #684A5E",
":  c #831617",
">  c #BC040F",
",  c #AE261C",
"<  c #AE271D",
"1  c #B0291F",
"2  c #DF0716",
"3  c #DD0817",
"4  c #D70B1D",
"5  c #E30211",
"6  c #E40211",
"7  c #E30412",
"8  c #E30613",
"9  c #E30713",
"0  c #E50410",
"q  c #E40512",
"w  c #E40513",
"e  c #E50613",
"r  c #E00816",
"t  c #E4111A",
"y  c #E4151D",
"u  c #E4161D",
"i  c #D30E21",
"p  c #C7122C",
"a  c #E61B20",
"s  c #E51D22",
"d  c #E41F22",
"f  c #E72B2B",
"g  c #E03D3B",
"h  c #834424",
"j  c #824425",
"k  c #824426",
"l  c #804429",
"z  c #80452B",
"x  c #854728",
"c  c #884B2C",
"v  c #905735",
"b  c #9C613E",
"n  c #CE4B3E",
"m  c #AE1F42",
"M  c #AB1F44",
"N  c #9E2650",
"B  c #9E2750",
"V  c #962B57",
"C  c #9B2852",
"Z  c #9E2E52",
"A  c #922A5A",
"S  c #913056",
"D  c #873064",
"F  c #82694C",
"G  c #876C4E",
"H  c #8E7252",
"J  c #A86F49",
"K  c #AE7850",
"L  c #AF7A52",
"P  c #B37B53",
"I  c #B57E55",
"U  c #B67E56",
"Y  c #DD5845",
"T  c #DA5A48",
"R  c #E85646",
"E  c #E85847",
"W  c #D27357",
"Q  c #E8604D",
"!  c #E9624E",
"~  c #E46A57",
"^  c #E96C55",
"/  c #EB7257",
"(  c #E1755E",
")  c #DB7360",
"_  c #D87B68",
"`  c #978568",
"'  c #838D79",
"]  c #8D9272",
"[  c #919670",
"{  c #BD9B70",
"}  c #CD996B",
"|  c #D0AA7A",
" . c #EDA77A",
".. c #E2B17F",
"X. c #5F4E8A",
"o. c #5A488D",
"O. c #4A5294",
"+. c #43529E",
"@. c #45549D",
"#. c #46589F",
"$. c #485A9E",
"%. c #566695",
"&. c #5A6793",
"*. c #5D6A90",
"=. c #66798C",
"-. c #4253A2",
";. c #4354A1",
":. c #4254A2",
">. c #B38C87",
",. c #B38C88",
"<. c #D9B180",
"1. c #DEB281",
"2. c #E1B583",
"3. c #E6B582",
"4. c #E5B683",
"5. c #E2B684",
"6. c #EDB081",
"7. c #E6B984",
"8. c #EEB886",
"9. c #EEBF8A",
"0. c #F4B986",
"q. c #F3BD89",
"w. c #EEC18B",
"e. c #EEC38D",
"r. c #F0C08A",
"t. c #F1C38C",
"y. c #F2C38C",
/* pixels */
"                                ",
"                                ",
"          q q 5 7 q 6 t Q 6.e.  ",
"        < < 1 Y T : n a 9 R ^   ",
"        L v K 3.| X { 0.E t q   ",
"      c } b P 3.1.= F 2.q.Q y   ",
"      x J I I 2.2.G . * H W f   ",
"          7.y.y.<.@ + O o >     ",
"          ~ ,._ / ( >.) f       ",
"e. .y 7 q 3 C V 4 r B A p     k ",
"9.8.^ a q q r % D N Z ` =.  $ k ",
"9.9.w.g m i m X.' %.;.[ *.+.& h ",
"      # ; S o.$.] &.-.-.;.@.& h ",
"    k l - O.:.;.-.;.;.          ",
"  k k l                         ",
"  k k                           "
};
