/* XPM */
static char *_b52588426004b56a60588dcce5752c0eB3lZQxudWng5RBh[] = {
/* columns rows colors chars-per-pixel */
"65 64 165 2 ",
"   c None",
".  c #000000",
"X  c #0F0102",
"o  c #0E0B08",
"O  c #090806",
"+  c #170706",
"@  c #16120D",
"#  c #18130E",
"$  c #3E3225",
"%  c #3A2F23",
"&  c #410406",
"*  c #421915",
"=  c #630409",
"-  c #413526",
";  c #443628",
":  c #534231",
">  c #7F4329",
",  c #78473A",
"<  c #63503B",
"1  c #6F3F7A",
"2  c #773B73",
"3  c #703F7A",
"4  c #7F386C",
"5  c #764643",
"6  c #744844",
"7  c #6F5941",
"8  c #715B42",
"9  c #6D4A51",
"0  c #7A6248",
"q  c #5B4E72",
"w  c #554F7E",
"e  c #55507E",
"r  c #6F467D",
"t  c #8A060D",
"y  c #B90711",
"u  c #BC0912",
"i  c #BF1531",
"p  c #BE1934",
"a  c #BA1B38",
"s  c #DE0612",
"d  c #DF0817",
"f  c #DB0A1B",
"g  c #D60D1F",
"h  c #CC1518",
"j  c #D1161C",
"k  c #E5010F",
"l  c #E30613",
"z  c #E30A15",
"x  c #E4161E",
"c  c #D20E22",
"v  c #CE1126",
"b  c #C8142B",
"n  c #D61723",
"m  c #C21731",
"M  c #C01833",
"N  c #E41B21",
"B  c #E52325",
"V  c #E62C2C",
"C  c #E6322F",
"Z  c #E63330",
"A  c #824426",
"S  c #824529",
"D  c #87492A",
"F  c #8B4D2E",
"G  c #8C502F",
"H  c #8E5031",
"J  c #995C3A",
"K  c #925434",
"L  c #9E633F",
"P  c #E7463C",
"I  c #E74B3F",
"U  c #E84B3E",
"Y  c #B11F41",
"T  c #8F2F5D",
"R  c #922E5C",
"E  c #982C56",
"W  c #8B325E",
"Q  c #A62449",
"!  c #823669",
"~  c #9E5B45",
"^  c #82684B",
"/  c #896047",
"(  c #8A6F51",
")  c #8B7051",
"_  c #917555",
"`  c #A56B46",
"'  c #A46945",
"]  c #AC714C",
"[  c #B37953",
"{  c #D15753",
"}  c #E94F40",
"|  c #E65143",
" . c #E85445",
".. c #E95947",
"X. c #E85B49",
"o. c #D46259",
"O. c #E96650",
"+. c #E96E56",
"@. c #EA7A5C",
"#. c #C46162",
"$. c #DFD73E",
"%. c #E4DB3B",
"&. c #F6EB2E",
"*. c #F9ED2D",
"=. c #EEE435",
"-. c #F3E831",
";. c #B0A15A",
":. c #B8B757",
">. c #868C77",
",. c #BE996F",
"<. c #B8946C",
"1. c #A88662",
"2. c #A0A266",
"3. c #C28D65",
"4. c #C09B70",
"5. c #DE9B71",
"6. c #CB9769",
"7. c #EA8263",
"8. c #EB8967",
"9. c #EB8F6B",
"0. c #EB906C",
"q. c #CDA578",
"w. c #D5A172",
"e. c #D8A576",
"r. c #D2A87A",
"t. c #DEAC7B",
"y. c #EDAA7D",
"u. c #E5AB7C",
"i. c #D5CF45",
"p. c #D1CC48",
"a. c #D8D144",
"s. c #C4C050",
"d. c #3F56A5",
"f. c #5A498D",
"g. c #5B498A",
"h. c #545081",
"j. c #4F4E96",
"k. c #484F9A",
"l. c #554C92",
"z. c #485397",
"x. c #45549C",
"c. c #4A519B",
"v. c #4D5D9B",
"b. c #505F99",
"n. c #644484",
"m. c #596694",
"M. c #516099",
"N. c #556396",
"B. c #6C7689",
"V. c #69748A",
"C. c #727B85",
"Z. c #4354A1",
"A. c #857D98",
"S. c #897A94",
"D. c #8E8398",
"F. c #938193",
"G. c #EEAE80",
"H. c #ECB584",
"J. c #E7B986",
"K. c #ECBA86",
"L. c #EEBF8A",
"P. c #E4B280",
"I. c #F1B182",
"U. c #EEC18B",
"Y. c #F1C18C",
/* pixels */
"                                                                                                                                  ",
"                                                                                                                                  ",
"                                                                                                                                  ",
"                                                                                                                                  ",
"                                                                                                                                  ",
"                                                                                                                                  ",
"                                                                                                                                  ",
"                                          l l l l l l z l l l l l l l l l l l l l                 U.U.L.L.L.L.L.U.L.L.L.L.        ",
"                                          l l l l l l l l l l l l l l l l l l l l                 L.L.K.Y.L.L.L.L.L.L.L.L.        ",
"                                          l l l l l l l l l l l l z l l l l l l l                 y.G.y.G.K.L.L.L.L.L.L.L.        ",
"                                  l l l l l l l l l l l l l l l l l l l l l l l l l l l l l l l z x N N N 9.Y.L.L.L.L.L.L.        ",
"                                  l l l l l l l l l l l l l l l l l l l l l l l l l l l l l l l l l l l z 8.Y.L.L.L.L.L.L.        ",
"                                  k l k l l l k l l z z s l l l l l l l l l l l z l l l l l l l l l l z z 7.Y.L.L.L.L.L.L.        ",
"                                  j j h h h h f h h h h h B B B B V B B j u y u u N B V N l l l l l l l z @.L.K.K.K.K.K.K.        ",
"                                  D A A A A A A A A A A F 0.H.y.G.G.G.I./ X X X # 3.G.G.y.        l l l l N Z Z Z Z C Z Z         ",
"                                  A A A A A A A A A A A F t.Y.L.L.Y.L.Y.^ . . . o 4.Y.L.L.        l l l l l l l k k l l l         ",
"                                  A A A A A A A A A A A F t.U.L.L.L.Y.Y.^ . . . o ,.Y.L.U.        z l l l l l l l l l z l         ",
"                                  ' ` ` L A A A A D D D H u.U.L.Y.L.L.Y.^ . . . o ,.Y.L.L.        l l z z l l l z l l l l         ",
"                          A A A G t.U.U.w.D A A K w.u.t.t.L.U.L.L.L.L.Y.^ . . . o ,.Y.L.L.L.L.L.K.9.@.7.@.C l l l l l l l         ",
"                          A A A F t.U.Y.w.D A A J J.U.L.Y.U.L.L.L.L.L.Y.^ . . . o ,.Y.L.L.L.L.L.L.U.U.U.L.P l l l l l l l         ",
"                          A A A F t.U.U.w.D A > J J.U.L.L.L.L.L.L.L.L.Y.^ . . . o ,.Y.L.L.L.L.L.L.L.L.L.L.P l l l l l l l         ",
"                          A A A F t.Y.Y.w.D A A L y.U.L.L.L.L.L.L.L.L.Y.^ . . . o <.L.J.J.L.L.L.L.L.L.L.L.P k l k l l l l         ",
"                          A A > F t.U.Y.w.D A A A L ' L ] u.U.L.L.L.L.Y.4.( ) ) 0 - $ $ : t.U.L.L.L.L.L.L.@.......V l l l         ",
"                          A A A G t.U.U.w.D A A A > > > F t.L.L.L.L.L.L.Y.Y.Y.Y.q.@ . . @ r.Y.L.L.L.L.L.L.L.U.U.U.O.l l z         ",
"                          A A A F t.Y.Y.w.D A A A A A A F t.L.L.L.L.L.L.L.L.L.Y.q.@ . . @ r.Y.U.L.L.L.L.L.U.L.L.U.O.l l l         ",
"                          A A A F 6.e.e.3.D D A D D D A F t.U.L.L.L.L.L.Y.L.Y.Y.q.@ . . # r.Y.Y.L.Y.L.U.U.U.Y.Y.U.O.l l l         ",
"                          A A A A D F D ' w.w.w.w.5.w.w.w.L.L.L.L.L.L.Y.1.: ; : ; O . . O : < < < < < < < ~ O.O.+.P l l l         ",
"                          A A A A A A > ] L.Y.U.U.Y.Y.Y.U.L.L.L.L.L.L.Y.8 . . O . . . . . . . . . . . . . = l l l                 ",
"                          A A A A A A A ] U.L.L.U.L.L.L.L.L.L.L.L.L.L.L.8 . . . . . . . . . . . . . . . . = l l l                 ",
"                          A A A A A A > [ U.L.L.L.L.L.L.L.L.L.L.L.L.L.Y.8 . . . . . . . . . . . . . . . . = l l l                 ",
"                                          U.U.L.L.L.L.L.L.L.L.L.L.L.L.L._ % - - $ $ $ - - - - - ; * & & & t l l l                 ",
"                                          U.L.L.L.L.U.L.L.L.L.L.L.L.L.L.J.J.J.J.J.J.J.J.J.J.J.J.L.| s s s l l z l                 ",
"                                          L.L.L.L.L.L.L.L.L.L.L.L.L.L.L.L.L.L.L.L.L.L.L.L.L.L.L.U.| l l l z l l l                 ",
"                                          L.L.L.L.L.L.K.L.L.L.Y.L.Y.L.L.L.L.Y.L.Y.Y.Y.Y.L.U.U.U.U...l l l l l l l                 ",
"                  l l l l l l l l l l l B } } } { S.A.A.A.#.} |  .} } }  .} .. .o.S.D.D.F.o...X.X.B l l l                   A A A ",
"                  z l l l l l l l l l l l l l k i k.Z.Z.x.Q k l l l l l l l l l i k.Z.Z.c.i k l l l l l l                   A A A ",
"                  l l l l l l l l l l l l l l k M k.Z.Z.Z.Q k l l l l l l l l l M c.Z.Z.c.M k l l l l l l                   A A A ",
"                B l l l l l l l l l l l l l l l m l.c.k.c.Q f c f z l l l l l l m l.j.j.l.Y v b v d l z l                   A A A ",
"L.L.L.L.L.L.L.U.O.l l l l l l l l l l l l l l l f M a p a 3 f.f.1 c l l l l l l z b b b m r l.l.l.                  A S A A A A A ",
"L.L.L.L.L.L.U.U.+.z l l l l l l l l l l l l l l l l k l l 1 Z.d.l.c l l l l l l l k l l l n.Z.Z.Z.                  A A A A A A A ",
"L.L.L.L.L.L.L.U.+.l l l l l l l l l l l z l l l l l l l z r d.Z.f.c l l l l l l l l l l f n.Z.Z.Z.                  A A A A > A S ",
"L.L.L.L.L.L.U.U.@.z l z z l l l l l l l l l l l l l l l l r Z.Z.f.v l l d l l d l d l l f r v.M.b.                  A A S A A A A ",
"L.L.L.U.L.L.L.U.y.9.9.0.9.B l l l l l l l l l l l l l l d 1 Z.Z.k.3 2 2 2 2 2 2 2 2 2 2 2 ;.i.i.i.2.Z.Z.Z.Z.Z.Z.Z.q S A A A A A A ",
"L.L.L.L.L.L.L.L.Y.Y.Y.Y.K.Z l l l l l l z l l l l l l l d 3 d.Z.Z.Z.d.d.d.Z.Z.Z.Z.d.d.d.Z.:.*.&.*.2.Z.Z.Z.Z.x.Z.Z.h.S A A A A A A ",
"L.L.L.L.L.L.L.L.L.L.L.L.H.C l l l l l l l l l l l l l l l 3 Z.Z.Z.Z.Z.Z.Z.Z.Z.Z.Z.Z.Z.Z.Z.:.&.-.*.2.Z.Z.Z.Z.Z.Z.Z.e S A A A A A A ",
"L.L.L.L.L.L.L.L.L.L.L.L.K.C l l l l l l l l l l l l l k f r Z.Z.Z.v.b.b.b.Z.Z.Z.Z.Z.Z.Z.Z.:.&.=.&.2.Z.Z.Z.Z.Z.Z.Z.e > A A A A A A ",
"L.L.L.L.L.L.U.L.L.L.L.L.K.      Q ! ! 4 T f l l f E ! ! ! l.Z.Z.N.s.i.i.i.B.Z.Z.Z.Z.Z.Z.Z.C.>.>.>.V.Z.Z.Z.Z.Z.Z.Z.h.S A A A A A A ",
"        L.L.L.L.                  Z.Z.Z.l.v l l c n.d.d.Z.Z.Z.Z.m.%.&.&.-.C.Z.Z.Z.Z.Z.Z.Z.Z.Z.Z.d.Z.Z.Z.Z.Z.Z.Z.Z.h.> A A A A A A ",
"        L.L.L.L.                  Z.Z.Z.f.c k l f n.Z.Z.Z.Z.Z.Z.m.$.&.-.-.C.Z.Z.Z.x.Z.Z.Z.Z.Z.Z.Z.Z.Z.Z.Z.Z.Z.Z.Z.e S S A A A A S ",
"        L.L.L.L.                  z.z.z.n.c l l f n.Z.Z.Z.Z.Z.Z.m.i.=.=.%.C.Z.Z.Z.Z.Z.Z.x.Z.Z.Z.Z.Z.Z.Z.Z.Z.Z.Z.Z.e S A A A A A A ",
"        L.L.L.U.  A A A A A A A S , , , 6 ! E R T l.Z.Z.x.Z.Z.Z.Z.B.V.B.B.b.Z.Z.Z.Z.Z.Z.Z.Z.Z.Z.Z.Z.Z.Z.x.Z.Z.Z.Z.e S A A A A A A ",
"                  A A A A A A A A A A A 6 x.Z.Z.Z.Z.Z.Z.Z.Z.Z.Z.Z.Z.Z.Z.Z.Z.Z.Z.Z.Z.Z.Z.Z.Z.Z.Z.Z.Z.Z.Z.Z.Z.Z.Z.Z.h.S A A A A A A ",
"                  A A A A A S A A A A A 6 x.Z.Z.Z.Z.Z.Z.Z.Z.Z.Z.Z.Z.Z.Z.Z.Z.Z.Z.Z.Z.Z.Z.Z.Z.Z.Z.Z.Z.Z.Z.Z.Z.Z.Z.Z.w S A A A S A A ",
"                  A A A A A A A A D A A 6 c.x.Z.Z.Z.Z.Z.Z.Z.Z.Z.Z.Z.Z.Z.Z.Z.Z.Z.Z.Z.Z.Z.Z.Z.Z.Z.Z.k.Z.Z.Z.Z.Z.Z.Z.h.> A A A A A A ",
"                A A A A A A A A 5 q q q h.Z.Z.Z.Z.Z.Z.Z.v.Z.Z.Z.Z.Z.Z.Z.Z.c.Z.Z.Z.                                                ",
"          A A A A A A A A A A A 9 Z.Z.Z.Z.Z.Z.Z.Z.Z.Z.Z.Z.Z.Z.Z.Z.Z.Z.Z.Z.Z.Z.Z.Z.                                                ",
"          S A A A A A A A A A A 9 Z.Z.Z.Z.x.Z.Z.Z.Z.Z.Z.Z.Z.Z.Z.Z.Z.Z.Z.Z.Z.Z.c.Z.                                                ",
"          A A A A A S A A A A S 5 j.Z.Z.Z.Z.Z.Z.Z.Z.Z.Z.Z.Z.Z.Z.Z.Z.Z.Z.Z.Z.Z.Z.Z.                                                ",
"          A A A A A A A A A A A D                                                                                                 ",
"          A S A A A A A A                                                                                                         ",
"          A A A A A A S A                                                                                                         ",
"          A A A A A A A S                                                                                                         ",
"          S A A A S A A A                                                                                                         ",
"          A A A A A A A A                                                                                                         "
};
