/* XPM */
static char *fe9d4f6f8f704c9090c96846ccde3d69Bj7Qfi5s6YrRRarX[] = {
/* columns rows colors chars-per-pixel */
"16 16 41 1 ",
"  c #593D29",
". c #664731",
"X c #704E36",
"o c #79553A",
"O c #6C6C6C",
"+ c #966C4A",
"@ c #509026",
"# c #57972D",
"$ c #5F9F35",
"% c #60A036",
"& c #61A137",
"* c #62A238",
"= c #64A43A",
"- c #66A63C",
"; c #67A73D",
": c #68A83E",
"> c #69A93F",
", c #6AAA40",
"< c #6BAB41",
"1 c #6CAC42",
"2 c #6DAD43",
"3 c #6FAF45",
"4 c #70B046",
"5 c #71B147",
"6 c #73B349",
"7 c #74B44A",
"8 c #75B54B",
"9 c #76B64C",
"0 c #7EBE54",
"q c #7FBF55",
"w c #B9855C",
"e c #81B051",
"r c #83B253",
"t c #8AB95A",
"y c #8DBC5D",
"u c #90BF60",
"i c #92C162",
"p c #93C263",
"a c #97C667",
"s c #9CCB6C",
"d c gray53",
/* pixels */
"796--4%207,-,%@3",
"72tee :*%pu6%2-,",
"y s=, 4 7qia #% ",
" O  4   $ 2 +  X",
"X++w Xoo . Oo+ +",
"+ X+ooX  oo Xo+w",
"w+oodooww+ww+oo+",
"++ww++oo+ +oXXoo",
".o+++oo Xoooo+ +",
"o  .o  ooo++ww+o",
"ow+wwow+ ww +XdX",
" .+++w+XOXXo.XX ",
"+ .XX+w+XX+XX+ww",
"w.X+O.+X+ w +w++",
".. wo X ww+XX++o",
".o+w+od.++X..X  "
};
