/* XPM */
static char *result[] = {
/* columns rows colors chars-per-pixel */
"64 64 43 1 ",
"  c #464D4F",
". c #383F40",
"X c #9F7315",
"o c #855A00",
"O c #141413",
"+ c magenta",
"@ c #130013",
"# c #120012",
"$ c #744000",
"% c #382B2F",
"& c #110011",
"* c #2F1C17",
"= c #100010",
"- c #0F000F",
"; c #536265",
": c #28221F",
"> c #221321",
", c #C1B339",
"< c #0E000E",
"1 c #20131F",
"2 c #62797E",
"3 c #0D000D",
"4 c #0C000C",
"5 c #1F131E",
"6 c #1E131D",
"7 c #1D131C",
"8 c #B08A2E",
"9 c #716033",
"0 c #1C131B",
"q c #1B131A",
"w c #2E2125",
"e c black",
"r c #060006",
"t c #050005",
"y c #040004",
"u c #030003",
"i c #020002",
"p c #151414",
"a c #292220",
"s c #0A000A",
"d c #090009",
"f c #2F2126",
"g c #1A1319",
/* pixels */
"    .XoooO++++++++++++++++++++++++++++++++++++@XXXX             ",
".....ooooO++++++++++++++++++++++++++++++++++++#Xooo.............",
".....ooo$O++++++++++++++++++++++++++++++++++++#Xooo.............",
"%....ooooO++++++++++++++++++++++++++++++++++++&Xooo...**********",
".....ooo$O++++++++++++++++++++++++++++++++++++=Xooo..*%.........",
".. ..ooo$O++++++++++++++++++++++++++++++++++++=Xooo..*..........",
".. ..ooo$O++++++++++++++++++++++++++++++++++++-Xooo..*..........",
"  ;  XXXo:++++++++++++++++++++++++++++++++++++>,XXX  %          ",
".. ..ooo$O++++++++++++++++++++++++++++++++++++<Xooo..*..........",
"  ;  XXXo:++++++++++++++++++++++++++++++++++++1,XXX  .          ",
"  2  XXXoO++++++++++++++++++++++++++++++++++++3,XXX  .          ",
"  ;  XXXoO++++++++++++++++++++++++++++++++++++4,XXX             ",
"  2  XXXo:++++++++++++++++++++++++++++++++++++5,XXX    ;;;2;2222",
"  2  XXXo:++++++++++++++++++++++++++++++++++++6,XXX             ",
"  2  XXXo:++++++++++++++++++++++++++++++++++++7,XXX             ",
"  2  XXXoO++++++++++++++++++++++++++++++++++++78XXXXXXXXXXXXXXX9",
"  2  XXXo:++++++++++++++++++++++++++++++++++++0,XXXXXXXXXXXXXXXX",
" ;2  XXXXO++++++++++++++++++++++++++++++++++++08XXXXXXXXXXXXXXXX",
"22   XXXo:++++++++++++++++++++++++++++++++++++q88888888X8X8XXXXX",
"     XXXX:++++++++++++++++++++++++++++++++++++w::::::::O:OOOeoXX",
"     XXXXo::::::::O:O:OOO++++++++++++++++++++++++++++++++++++rXX",
".    XXXXXXXXXXXXXXXXXX$O++++++++++++++++++++++++++++++++++++r8X",
"     9XXXXXXXXXXXXXXXXXXO++++++++++++++++++++++++++++++++++++t,X",
"  ;   XXXXXXXXXXXXXXXXXoO++++++++++++++++++++++++++++++++++++t,X",
"   2   9XXXXXXXXXXXXXXXXO++++++++++++++++++++++++++++++++++++y,X",
"    ;               XXXoO++++++++++++++++++++++++++++++++++++y,X",
"     ;              XXXoO++++++++++++++++++++++++++++++++++++u,X",
"      .%%%%%%...    XXXoO++++++++++++++++++++++++++++++++++++u,X",
"                    XXXoO++++++++++++++++++++++++++++++++++++i,X",
"                 ;  XXXoO++++++++++++++++++++++++++++++++++++i8X",
"                 ;  XXXoO++++++++++++++++++++++++++++++++++++p,X",
"                 ;  XXXoO++++++++++++++++++++++++++++++++++++a8X",
"                 ;  XXXo:++++++++++++++++++++++++++++++++++++p8X",
"                 2  XXXoO++++++++++++++++++++++++++++++++++++a8X",
"                 2  XXXo:++++++++++++++++++++++++++++++++++++p8X",
"                ;2  XXXoO++++++++++++++++++++++++++++++++++++a8X",
"22222222222222222   XXXX:++++++++++++++++++++++++++++++++++++a8X",
"                    XXXoO++++++++++++++++++++++++++++++++++++a8X",
"                    XXXX:++++++++++++++++++++++++++++++++++++a8X",
"9XXXXXXXXXXXXXXXXXXXXXXoO++++++++++++++++++++++++++++++++++++aXX",
"XXXXXXXXXXXXXXXXXXXXXXXX:++++++++++++++++++++++++++++++++++++a8X",
"XXXXXXXXXXXXXXXXXXXXXXXXO++++++++++++++++++++++++++++++++++++aXX",
"XXXXX888888888888X8X8XX$:++++++++++++++++++++++++++++++++++++a8X",
"XXoOO::::::O:O:O:O:O:O:::++++++++++++++++++++++++++++++++++++aXX",
"XXq++++++++++++++++++++++++++++++++++++sO:::::O:O:O:O:O:O::::oXX",
"XXq++++++++++++++++++++++++++++++++++++sXXXXXXXXXXXXXXXXXXXXXXXX",
"Xoq++++++++++++++++++++++++++++++++++++sXXXXXXXXXXXXXXXXXXXXXXXX",
"XXq++++++++++++++++++++++++++++++++++++s8XXXXXXXXXXXXXXXXXXXXXXX",
"Xoq++++++++++++++++++++++++++++++++++++sXXXXXXXXXXXXXXXXXXXXXXX9",
"Xoq++++++++++++++++++++++++++++++++++++d8XXX                    ",
"Xoq++++++++++++++++++++++++++++++++++++d,XXX                    ",
"Xof++++++++++++++++++++++++++++++++++++0,XXX   %%%%%%%%%%.%.....",
"Xoq++++++++++++++++++++++++++++++++++++d,XXX  %.                ",
"Xof++++++++++++++++++++++++++++++++++++08XXX  %                 ",
"Xoq++++++++++++++++++++++++++++++++++++d,XXX  %                 ",
"X$f++++++++++++++++++++++++++++++++++++qXXXX  %                 ",
"Xof++++++++++++++++++++++++++++++++++++q8XXX  .                 ",
"X$f++++++++++++++++++++++++++++++++++++qXXXX  .                 ",
"X$q++++++++++++++++++++++++++++++++++++qXXXX  .                 ",
"X$f++++++++++++++++++++++++++++++++++++qXXXX                    ",
"X$q++++++++++++++++++++++++++++++++++++gXXXX    ;;;;;;22222;2;22",
"X$f++++++++++++++++++++++++++++++++++++gXXXX                    ",
"X$f++++++++++++++++++++++++++++++++++++wXXXX                    ",
"*Oq++++++++++++++++++++++++++++++++++++gO*OOOO%O%%%%%%%%%%*%*%%*"
};
