/* XPM */
static char *result[] = {
/* columns rows colors chars-per-pixel */
"64 64 33 1 ",
"  c magenta",
". c #130013",
"X c #9F7315",
"o c #464D4F",
"O c #120012",
"+ c #855A00",
"@ c #383F40",
"# c #110011",
"$ c #100010",
"% c #0F000F",
"& c #221321",
"* c #C1B339",
"= c #0E000E",
"- c #20131F",
"; c #0D000D",
": c #0C000C",
"> c #1F131E",
", c #1E131D",
"< c #1D131C",
"1 c #B08A2E",
"2 c #1C131B",
"3 c #1B131A",
"4 c #2E2125",
"5 c #28221F",
"6 c #141413",
"7 c #744000",
"8 c #382B2F",
"9 c #536265",
"0 c #62797E",
"q c #0A000A",
"w c #090009",
"e c #1A1319",
"r c #2F1C17",
/* pixels */
"                                                          .XXXXo",
"                                                          OX+++@",
"                                                          OX+++@",
"                                                          #X+++@",
"                                                          $X+++@",
"                                                          $X+++@",
"                                                          %X+++@",
"                                                          &*XXXo",
"                                                          =X+++@",
"                                                          -*XXXo",
"                                                          ;*XXXo",
"                                                          :*XXXo",
"                                                          >*XXXo",
"                                                          ,*XXXo",
"                                                          <*XXXo",
"                                                          <1XXXX",
"                                                          2*XXXX",
"                                                          21XXXX",
"                                                          311111",
"                                                          455555",
"5555556565666                                                   ",
"XXXXXXXXXXX76                                                   ",
"XXXXXXXXXXXX6                                                   ",
"XXXXXXXXXXX+6                                                   ",
"XXXXXXXXXXXX6                                                   ",
"ooooooooXXX+6                                                   ",
"ooooooooXXX+6                                                   ",
"8@@@ooooXXX+6                                                   ",
"ooooooooXXX+6                                                   ",
"ooooo9ooXXX+6                                                   ",
"ooooo9ooXXX+6                                                   ",
"ooooo9ooXXX+6                                                   ",
"ooooo9ooXXX+5                                                   ",
"ooooo0ooXXX+6                                                   ",
"ooooo0ooXXX+5                                                   ",
"oooo90ooXXX+6                                                   ",
"00000oooXXXX5                                                   ",
"ooooooooXXX+6                                                   ",
"ooooooooXXXX5                                                   ",
"XXXXXXXXXXX+6                                                   ",
"XXXXXXXXXXXX5                                                   ",
"XXXXXXXXXXXX6                                                   ",
"11111X1X1XX75                                                   ",
"5656565656555                                                   ",
"                                                   q655555656565",
"                                                   qXXXXXXXXXXXX",
"                                                   qXXXXXXXXXXXX",
"                                                   q1XXXXXXXXXXX",
"                                                   qXXXXXXXXXXXX",
"                                                   w1XXXoooooooo",
"                                                   w*XXXoooooooo",
"                                                   2*XXXooo88888",
"                                                   w*XXXoo8@oooo",
"                                                   21XXXoo8ooooo",
"                                                   w*XXXoo8ooooo",
"                                                   3XXXXoo8ooooo",
"                                                   31XXXoo@ooooo",
"                                                   3XXXXoo@ooooo",
"                                                   3XXXXoo@ooooo",
"                                                   3XXXXoooooooo",
"                                                   eXXXXoooo9999",
"                                                   eXXXXoooooooo",
"                                                   4XXXXoooooooo",
"                                                   e6r6666868888"
};
