/* XPM */
static char *result[] = {
/* columns rows colors chars-per-pixel */
"64 64 16 1 ",
"  c magenta",
". c #141413",
"X c #28221F",
"o c #9F7315",
"O c #744000",
"+ c #855A00",
"@ c #464D4F",
"# c #B08A2E",
"$ c #0A000A",
"% c #090009",
"& c #C1B339",
"* c #1C131B",
"= c #1B131A",
"- c #1A1319",
"; c #2E2125",
": c #2F1C17",
/* pixels */
"                                                                ",
"                                                                ",
"                                                                ",
"                                                                ",
"                                                                ",
"                                                                ",
"                                                                ",
"                                                                ",
"                                                                ",
"                                                                ",
"                                                                ",
"                                                                ",
"                                                                ",
"                                                                ",
"                                                                ",
"                                                                ",
"                                                                ",
"                                                                ",
"                                                                ",
"                                                                ",
".X.X...                                                         ",
"oooooO.                                                         ",
"oooooo.                                                         ",
"ooooo+.                                                         ",
"oooooo.                                                         ",
"@@ooo+.                                                         ",
"@@ooo+.                                                         ",
"@@ooo+.                                                         ",
"@@ooo+.                                                         ",
"@@ooo+.                                                         ",
"@@ooo+.                                                         ",
"@@ooo+.                                                         ",
"@@ooo+X                                                         ",
"@@ooo+.                                                         ",
"@@ooo+X                                                         ",
"@@ooo+.                                                         ",
"@@ooooX                                                         ",
"@@ooo+.                                                         ",
"@@ooooX                                                         ",
"ooooo+.                                                         ",
"ooooooX                                                         ",
"oooooo.                                                         ",
"#o#ooOX                                                         ",
"X.X.XXX                                                         ",
"                                                         $.XXXXX",
"                                                         $oooooo",
"                                                         $oooooo",
"                                                         $#ooooo",
"                                                         $oooooo",
"                                                         %#ooo@@",
"                                                         %&ooo@@",
"                                                         *&ooo@@",
"                                                         %&ooo@@",
"                                                         *#ooo@@",
"                                                         %&ooo@@",
"                                                         =oooo@@",
"                                                         =#ooo@@",
"                                                         =oooo@@",
"                                                         =oooo@@",
"                                                         =oooo@@",
"                                                         -oooo@@",
"                                                         -oooo@@",
"                                                         ;oooo@@",
"                                                         -.:...."
};
